# Blender v2.79 (sub 0) OBJ File: ''
# www.blender.org
o Groundbot
v 0.000000 -0.000068 -0.050000
v 0.399900 -0.000068 -0.050000
v 0.199950 -0.346392 -0.050000
v 0.399900 -0.000068 0.050000
v 0.199950 -0.346392 0.050000
v 0.000000 -0.000068 0.050000
v -0.199950 -0.346392 -0.050000
v -0.199950 -0.346392 0.050000
v -0.399900 -0.000068 -0.050000
v -0.399900 -0.000068 0.050000
v -0.199950 0.346256 -0.050000
v -0.199950 0.346256 0.050000
v 0.199950 0.346256 -0.050000
v 0.199950 0.346256 0.050000
vn 0.0000 0.0000 -1.0000
vn 0.8660 -0.5000 0.0000
vn 0.0000 -0.0000 1.0000
vn 0.0000 -1.0000 0.0000
vn -0.8660 -0.5000 0.0000
vn -0.8660 0.5000 0.0000
vn 0.0000 1.0000 0.0000
vn 0.8660 0.5000 0.0000
s 1
f 1//1 2//1 3//1
f 2//2 4//2 5//2 3//2
f 4//3 6//3 5//3
f 1//1 3//1 7//1
f 3//4 5//4 8//4 7//4
f 5//3 6//3 8//3
f 1//1 7//1 9//1
f 7//5 8//5 10//5 9//5
f 8//3 6//3 10//3
f 1//1 9//1 11//1
f 9//6 10//6 12//6 11//6
f 10//3 6//3 12//3
f 1//1 11//1 13//1
f 11//7 12//7 14//7 13//7
f 12//3 6//3 14//3
f 1//1 13//1 2//1
f 13//8 14//8 4//8 2//8
f 14//3 6//3 4//3
